<?xml version="1.0" standalone="no"?>
<!DOCTYPE svg PUBLIC "-//W3C//DTD SVG 20010904//EN"
 "http://www.w3.org/TR/2001/REC-SVG-20010904/DTD/svg10.dtd">
<svg version="1.0" xmlns="http://www.w3.org/2000/svg"
 width="1198.000000pt" height="407.000000pt" viewBox="0 0 1198.000000 407.000000"
 preserveAspectRatio="xMidYMid meet">

<g transform="translate(0.000000,407.000000) scale(0.100000,-0.100000)"
fill="#000000" stroke="none">
<path d="M0 2035 l0 -2035 5985 0 5985 0 0 2035 0 2035 -5985 0 -5985 0 0
-2035z m6163 727 c251 -124 307 -457 110 -656 -92 -93 -220 -134 -346 -110
-184 35 -309 159 -340 337 -28 166 63 343 216 420 70 36 125 47 219 43 62 -2
89 -9 141 -34z m-1298 -1466 c40 -26 57 -62 63 -131 l5 -65 -37 0 -36 0 0 59
c0 52 -3 62 -26 80 -36 29 -100 28 -131 -1 -23 -21 -23 -25 -23 -239 0 -199 2
-219 19 -240 16 -20 29 -24 71 -24 63 0 90 26 90 86 0 38 1 39 36 39 l37 0 -7
-52 c-9 -65 -19 -84 -59 -108 -44 -27 -150 -27 -194 0 -56 34 -58 44 -58 290
0 261 5 281 69 312 49 22 142 19 181 -6z m877 14 c57 -16 88 -60 88 -126 0
-53 -1 -54 -29 -54 -26 0 -29 3 -34 47 -6 60 -33 83 -93 83 -31 0 -50 -6 -64
-20 -19 -19 -20 -33 -20 -243 0 -201 2 -226 18 -240 44 -40 131 -28 151 22 7
15 11 59 9 97 l-3 69 -52 3 c-49 3 -53 5 -53 28 0 24 1 24 85 24 l85 0 0 -115
c0 -170 -26 -205 -152 -205 -75 0 -104 13 -136 60 -23 34 -23 38 -20 267 3
217 4 233 24 260 35 47 116 65 196 43z m518 -8 c58 -29 60 -39 60 -339 l0
-273 -30 0 -30 0 0 258 c0 186 -4 264 -13 282 -26 52 -136 29 -165 -35 -8 -18
-12 -104 -12 -265 l0 -240 -30 0 -30 0 0 305 c0 248 2 305 13 305 8 0 19 -12
26 -27 11 -25 14 -26 25 -12 20 29 80 59 116 59 19 0 51 -8 70 -18z m950 5
c52 -18 80 -67 80 -138 l0 -59 -35 0 -35 0 0 59 c0 71 -19 91 -87 91 -57 0
-83 -25 -83 -82 0 -39 5 -47 114 -157 63 -64 120 -129 125 -144 27 -71 2 -155
-54 -181 -40 -19 -150 -21 -185 -3 -44 22 -70 73 -70 138 l0 59 35 0 35 0 0
-58 c0 -75 20 -97 90 -97 65 0 90 23 90 83 0 44 -3 48 -114 161 -140 142 -158
180 -121 267 25 61 128 91 215 61z m-2088 -177 c3 -189 6 -196 71 -207 43 -7
80 1 101 23 13 13 16 44 16 185 l0 169 35 0 35 0 0 -165 c0 -217 -8 -237 -112
-269 -15 -5 -18 -18 -18 -91 l0 -85 -30 0 -30 0 0 85 c0 73 -3 86 -17 91 -108
35 -113 45 -113 262 l0 172 29 0 29 0 4 -170z m1438 -84 c0 -140 4 -266 9
-279 19 -48 110 -42 151 10 19 24 20 40 20 274 l0 249 35 0 35 0 0 -305 c0
-253 -2 -305 -14 -305 -7 0 -19 14 -26 30 -12 30 -13 30 -27 10 -50 -71 -196
-66 -234 9 -10 19 -15 98 -17 294 l-3 267 35 0 36 0 0 -254z"/>
</g>
</svg>
