<?xml version="1.0" standalone="no"?>
<!DOCTYPE svg PUBLIC "-//W3C//DTD SVG 20010904//EN"
 "http://www.w3.org/TR/2001/REC-SVG-20010904/DTD/svg10.dtd">
<svg version="1.0" xmlns="http://www.w3.org/2000/svg"
 width="1200.000000pt" height="1200.000000pt" viewBox="0 0 1200.000000 1200.000000"
 preserveAspectRatio="xMidYMid meet">

<g transform="translate(0.000000,1200.000000) scale(0.100000,-0.100000)"
fill="#000000" stroke="none">
<path d="M0 6000 l0 -6000 6000 0 6000 0 0 6000 0 6000 -6000 0 -6000 0 0
-6000z m6253 2279 c424 -84 781 -408 915 -829 42 -133 56 -225 56 -370 0 -199
-42 -376 -129 -550 -222 -439 -698 -713 -1163 -669 -334 31 -576 141 -793 358
-159 158 -264 342 -322 559 -28 110 -30 128 -31 297 0 192 9 252 59 401 57
168 159 331 294 465 216 215 458 326 781 358 106 11 207 5 333 -20z m-3641
-4455 c83 -20 148 -56 197 -109 79 -86 100 -171 101 -407 l0 -128 -99 0 -99 0
-4 168 c-3 146 -6 172 -25 207 -44 84 -113 117 -249 117 -119 0 -188 -28 -231
-93 l-28 -43 -3 -644 c-2 -644 -2 -645 19 -690 50 -102 214 -146 369 -100 51
15 97 53 122 101 17 34 22 65 26 155 l5 113 96 -3 96 -3 -2 -117 c-2 -134 -17
-201 -63 -270 -82 -124 -275 -187 -490 -159 -158 20 -253 70 -318 165 -64 95
-63 83 -60 817 l3 664 29 62 c33 73 101 141 169 171 111 49 299 60 439 26z
m2715 5 c122 -24 221 -99 272 -208 23 -50 26 -70 29 -194 l4 -138 -99 3 -98 3
-5 121 c-5 110 -7 124 -33 162 -33 51 -86 79 -169 91 -61 8 -162 1 -203 -14
-40 -15 -86 -57 -108 -98 l-22 -42 0 -625 c0 -575 1 -629 18 -671 35 -91 113
-132 252 -133 116 0 189 30 232 95 l28 42 3 249 3 248 -156 0 -155 0 0 85 0
85 255 0 255 0 0 -329 c0 -306 -1 -334 -21 -397 -18 -57 -31 -77 -82 -129 -72
-72 -130 -97 -258 -115 -85 -12 -180 -8 -274 12 -116 24 -221 105 -268 206
l-22 47 0 695 c0 691 0 695 22 742 26 58 94 132 147 163 98 57 288 75 453 44z
m1546 -10 c58 -17 78 -29 127 -77 41 -40 64 -75 81 -117 l24 -60 3 -802 3
-803 -100 0 -101 0 -2 793 -3 792 -25 44 c-34 61 -79 82 -172 83 -133 0 -251
-69 -319 -186 l-29 -51 0 -737 0 -738 -100 0 -100 0 0 920 0 920 43 0 44 0 34
-91 c33 -88 34 -90 48 -67 29 46 129 134 183 160 102 50 226 56 361 17z m2872
4 c75 -18 131 -50 178 -102 74 -82 97 -168 97 -373 l0 -138 -99 0 -99 0 -4
158 c-3 146 -5 160 -28 200 -14 26 -42 54 -65 68 -75 43 -236 49 -325 12 -39
-17 -86 -66 -102 -107 -13 -35 -11 -176 3 -220 19 -60 53 -97 343 -376 153
-148 294 -290 312 -315 95 -129 118 -356 51 -504 -66 -144 -200 -209 -432
-209 -189 -1 -289 28 -375 109 -27 26 -62 72 -77 103 -27 54 -28 63 -31 239
l-4 182 95 0 94 0 5 -153 c4 -139 7 -158 29 -197 48 -88 178 -133 322 -110
122 19 183 67 207 163 14 55 0 177 -26 230 -9 18 -159 174 -333 347 -335 332
-354 356 -380 471 -16 68 -13 218 5 279 35 119 116 197 248 240 91 29 278 31
391 3z m-6243 -520 l3 -498 25 -45 c33 -59 95 -96 184 -110 170 -27 314 35
345 147 7 24 11 215 11 521 l0 482 100 0 101 0 -3 -517 -3 -518 -31 -66 c-17
-36 -48 -83 -69 -103 -46 -46 -139 -92 -217 -107 l-58 -12 0 -258 0 -259 -100
0 -100 0 0 259 0 258 -62 13 c-144 27 -253 111 -300 228 -23 56 -23 62 -26
570 l-3 512 100 0 100 0 3 -497z m4318 -263 c0 -510 4 -776 11 -810 11 -51 45
-102 80 -120 65 -35 192 -30 275 12 59 29 136 103 166 159 l23 44 3 738 3 737
94 0 95 0 0 -921 0 -920 -42 3 -41 3 -35 81 -34 82 -71 -73 c-118 -118 -230
-157 -388 -136 -160 22 -263 95 -310 224 l-24 62 -3 798 -3 797 101 0 100 0 0
-760z"/>
</g>
</svg>
