<?xml version="1.0" standalone="no"?>
<!DOCTYPE svg PUBLIC "-//W3C//DTD SVG 20010904//EN"
 "http://www.w3.org/TR/2001/REC-SVG-20010904/DTD/svg10.dtd">
<svg version="1.0" xmlns="http://www.w3.org/2000/svg"
 width="1200.000000pt" height="1200.000000pt" viewBox="0 0 1200.000000 1200.000000"
 preserveAspectRatio="xMidYMid meet">

<g transform="translate(0.000000,1200.000000) scale(0.100000,-0.100000)"
fill="#000000" stroke="none">
<path d="M5720 9465 c-432 -52 -820 -210 -1180 -479 -122 -91 -355 -324 -447
-447 -201 -268 -338 -551 -418 -863 -57 -223 -70 -332 -70 -596 0 -264 13
-373 70 -596 217 -847 882 -1512 1729 -1729 164 -42 305 -63 469 -72 l127 -6
0 241 0 240 78 6 c349 28 611 103 864 248 515 294 856 789 954 1383 23 140 23
425 0 569 -109 678 -548 1235 -1174 1491 -192 78 -384 120 -644 141 l-78 6 0
239 0 239 -87 -1 c-49 -1 -135 -7 -193 -14z m440 -1170 c141 -19 235 -47 358
-105 144 -69 232 -130 343 -240 373 -370 471 -928 245 -1395 -127 -263 -313
-450 -571 -576 -207 -101 -394 -137 -608 -118 -320 29 -576 145 -788 358 -179
180 -291 389 -340 636 -18 92 -18 358 0 450 49 247 161 457 340 636 216 216
459 328 781 358 124 12 125 12 240 -4z"/>
</g>
</svg>
