<?xml version="1.0" encoding="UTF-8"?>
<svg xmlns="http://www.w3.org/2000/svg" xmlns:xlink="http://www.w3.org/1999/xlink" width="30px" height="30px" viewBox="0 0 30 30" version="1.1">
<g id="surface1">
<path style=" stroke:none;fill-rule:nonzero;fill:rgb(0%,0%,0%);fill-opacity:1;" d="M 0 15 L 0 30 L 30 30 L 30 0 L 0 0 Z M 15.632812 9.300781 C 16.691406 9.511719 17.585938 10.324219 17.921875 11.375 C 18.023438 11.707031 18.058594 11.9375 18.058594 12.300781 C 18.058594 12.796875 17.953125 13.238281 17.738281 13.675781 C 17.183594 14.773438 15.992188 15.457031 14.828125 15.347656 C 13.996094 15.269531 13.390625 14.996094 12.847656 14.453125 C 12.449219 14.058594 12.1875 13.597656 12.042969 13.054688 C 11.972656 12.78125 11.96875 12.734375 11.964844 12.3125 C 11.964844 11.832031 11.988281 11.683594 12.113281 11.308594 C 12.253906 10.890625 12.511719 10.484375 12.847656 10.148438 C 13.386719 9.609375 13.992188 9.332031 14.800781 9.253906 C 15.066406 9.226562 15.316406 9.238281 15.632812 9.300781 Z M 6.53125 20.441406 C 6.738281 20.488281 6.898438 20.578125 7.023438 20.710938 C 7.21875 20.925781 7.273438 21.140625 7.273438 21.730469 L 7.273438 22.050781 L 6.78125 22.050781 L 6.769531 21.628906 C 6.761719 21.265625 6.753906 21.199219 6.707031 21.113281 C 6.597656 20.902344 6.425781 20.820312 6.085938 20.820312 C 5.789062 20.820312 5.613281 20.890625 5.507812 21.050781 L 5.4375 21.160156 L 5.429688 22.769531 C 5.425781 24.378906 5.425781 24.382812 5.476562 24.496094 C 5.601562 24.75 6.011719 24.859375 6.398438 24.746094 C 6.527344 24.707031 6.640625 24.613281 6.703125 24.492188 C 6.746094 24.40625 6.761719 24.328125 6.769531 24.105469 L 6.78125 23.824219 L 7.023438 23.828125 L 7.261719 23.835938 L 7.257812 24.128906 C 7.253906 24.464844 7.214844 24.632812 7.101562 24.804688 C 6.894531 25.113281 6.414062 25.273438 5.875 25.203125 C 5.480469 25.152344 5.242188 25.027344 5.078125 24.789062 C 4.921875 24.550781 4.921875 24.582031 4.929688 22.746094 L 4.9375 21.085938 L 5.011719 20.933594 C 5.09375 20.75 5.261719 20.578125 5.433594 20.503906 C 5.710938 20.382812 6.179688 20.355469 6.53125 20.441406 Z M 13.316406 20.425781 C 13.621094 20.488281 13.871094 20.675781 13.996094 20.949219 C 14.054688 21.074219 14.0625 21.121094 14.070312 21.433594 L 14.078125 21.777344 L 13.585938 21.761719 L 13.574219 21.460938 C 13.5625 21.183594 13.558594 21.148438 13.492188 21.054688 C 13.410156 20.925781 13.277344 20.859375 13.070312 20.828125 C 12.917969 20.808594 12.664062 20.824219 12.5625 20.863281 C 12.460938 20.898438 12.347656 21.003906 12.292969 21.109375 L 12.238281 21.210938 L 12.238281 22.773438 C 12.238281 24.210938 12.238281 24.347656 12.28125 24.453125 C 12.371094 24.679688 12.566406 24.78125 12.914062 24.785156 C 13.203125 24.785156 13.386719 24.710938 13.492188 24.546875 L 13.5625 24.441406 L 13.578125 23.199219 L 12.800781 23.199219 L 12.800781 22.773438 L 14.074219 22.773438 L 14.074219 23.597656 C 14.074219 24.363281 14.074219 24.433594 14.023438 24.589844 C 13.976562 24.734375 13.945312 24.78125 13.816406 24.914062 C 13.636719 25.09375 13.492188 25.15625 13.171875 25.199219 C 12.960938 25.230469 12.722656 25.21875 12.488281 25.171875 C 12.199219 25.109375 11.933594 24.90625 11.816406 24.65625 L 11.761719 24.539062 L 11.761719 22.800781 C 11.761719 21.074219 11.761719 21.0625 11.816406 20.945312 C 11.882812 20.800781 12.050781 20.613281 12.183594 20.539062 C 12.429688 20.394531 12.90625 20.351562 13.316406 20.425781 Z M 17.183594 20.453125 C 17.328125 20.496094 17.378906 20.523438 17.5 20.644531 C 17.601562 20.746094 17.660156 20.832031 17.703125 20.9375 L 17.761719 21.085938 L 17.777344 25.101562 L 17.273438 25.101562 L 17.269531 23.117188 L 17.261719 21.136719 L 17.199219 21.027344 C 17.113281 20.875 17.003906 20.824219 16.769531 20.820312 C 16.4375 20.820312 16.140625 20.992188 15.972656 21.285156 L 15.898438 21.414062 L 15.898438 25.101562 L 15.398438 25.101562 L 15.398438 20.5 L 15.617188 20.5 L 15.703125 20.726562 C 15.785156 20.949219 15.789062 20.953125 15.824219 20.894531 C 15.894531 20.78125 16.144531 20.558594 16.28125 20.496094 C 16.535156 20.371094 16.84375 20.355469 17.183594 20.453125 Z M 24.363281 20.441406 C 24.550781 20.488281 24.691406 20.566406 24.808594 20.699219 C 24.992188 20.902344 25.050781 21.117188 25.050781 21.628906 L 25.050781 21.976562 L 24.554688 21.976562 L 24.546875 21.578125 C 24.539062 21.214844 24.53125 21.179688 24.476562 21.078125 C 24.441406 21.015625 24.371094 20.945312 24.3125 20.910156 C 24.125 20.800781 23.722656 20.789062 23.5 20.878906 C 23.402344 20.921875 23.285156 21.046875 23.246094 21.148438 C 23.210938 21.234375 23.21875 21.585938 23.253906 21.699219 C 23.300781 21.847656 23.386719 21.941406 24.109375 22.636719 C 24.492188 23.007812 24.84375 23.363281 24.890625 23.425781 C 25.128906 23.746094 25.183594 24.316406 25.015625 24.683594 C 24.851562 25.046875 24.515625 25.207031 23.9375 25.207031 C 23.464844 25.210938 23.214844 25.136719 23 24.933594 C 22.933594 24.871094 22.84375 24.753906 22.808594 24.675781 C 22.738281 24.542969 22.738281 24.519531 22.730469 24.078125 L 22.71875 23.625 L 23.191406 23.625 L 23.203125 24.007812 C 23.214844 24.355469 23.222656 24.402344 23.277344 24.5 C 23.398438 24.71875 23.722656 24.832031 24.082031 24.773438 C 24.386719 24.726562 24.539062 24.609375 24.601562 24.367188 C 24.636719 24.230469 24.601562 23.925781 24.535156 23.792969 C 24.511719 23.746094 24.136719 23.359375 23.703125 22.925781 C 22.863281 22.09375 22.816406 22.035156 22.753906 21.746094 C 22.710938 21.578125 22.71875 21.203125 22.765625 21.050781 C 22.851562 20.753906 23.054688 20.558594 23.386719 20.449219 C 23.613281 20.378906 24.078125 20.371094 24.363281 20.441406 Z M 8.753906 21.742188 L 8.761719 22.988281 L 8.824219 23.101562 C 8.90625 23.246094 9.0625 23.339844 9.285156 23.375 C 9.710938 23.441406 10.070312 23.289062 10.148438 23.007812 C 10.164062 22.949219 10.175781 22.46875 10.175781 21.703125 L 10.175781 20.5 L 10.675781 20.5 L 10.671875 21.792969 L 10.664062 23.085938 L 10.585938 23.253906 C 10.542969 23.34375 10.464844 23.460938 10.414062 23.511719 C 10.296875 23.625 10.066406 23.738281 9.871094 23.777344 L 9.726562 23.808594 L 9.726562 25.101562 L 9.226562 25.101562 L 9.226562 23.808594 L 9.070312 23.773438 C 8.710938 23.707031 8.4375 23.496094 8.320312 23.203125 C 8.261719 23.066406 8.261719 23.050781 8.253906 21.78125 L 8.246094 20.5 L 8.746094 20.5 Z M 19.550781 22.398438 C 19.550781 23.675781 19.558594 24.339844 19.578125 24.425781 C 19.605469 24.550781 19.691406 24.679688 19.777344 24.726562 C 19.941406 24.8125 20.257812 24.800781 20.464844 24.695312 C 20.613281 24.621094 20.804688 24.4375 20.878906 24.296875 L 20.9375 24.1875 L 20.953125 20.5 L 21.425781 20.5 L 21.425781 25.101562 L 21.320312 25.09375 L 21.21875 25.085938 L 21.128906 24.886719 L 21.046875 24.679688 L 20.867188 24.863281 C 20.574219 25.15625 20.292969 25.253906 19.898438 25.203125 C 19.496094 25.148438 19.238281 24.964844 19.121094 24.640625 L 19.0625 24.488281 L 19.054688 22.492188 L 19.046875 20.5 L 19.550781 20.5 Z M 19.550781 22.398438 "/>
</g>
</svg>
