<?xml version="1.0" standalone="no"?>
<!DOCTYPE svg PUBLIC "-//W3C//DTD SVG 20010904//EN"
 "http://www.w3.org/TR/2001/REC-SVG-20010904/DTD/svg10.dtd">
<svg version="1.0" xmlns="http://www.w3.org/2000/svg"
 width="800.000000pt" height="1480.000000pt" viewBox="0 0 800.000000 1480.000000"
 preserveAspectRatio="xMidYMid meet">

<g transform="translate(0.000000,1480.000000) scale(0.100000,-0.100000)"
fill="#000000" stroke="none">
<path d="M0 7400 l0 -7400 4000 0 4000 0 0 7400 0 7400 -4000 0 -4000 0 0
-7400z m4142 1525 c171 -30 303 -100 433 -230 119 -120 177 -220 222 -386 24
-88 24 -290 0 -378 -45 -166 -103 -266 -222 -386 -120 -120 -221 -178 -386
-222 -81 -22 -245 -21 -354 2 -205 43 -380 160 -506 338 -182 259 -186 636 -9
902 139 208 354 337 609 364 114 12 121 12 213 -4z m-2388 -2979 c73 -22 118
-57 150 -117 27 -49 30 -63 34 -181 l5 -128 -72 0 -71 0 0 120 c0 119 0 119
-31 154 -72 82 -258 72 -306 -16 -17 -30 -18 -66 -18 -458 0 -383 2 -428 17
-456 52 -96 265 -99 321 -5 12 21 17 51 17 105 l0 76 71 0 72 0 -6 -91 c-13
-194 -99 -269 -313 -269 -120 0 -185 21 -241 76 -71 72 -73 86 -73 564 0 480
2 492 75 565 28 29 61 49 92 59 62 19 216 20 277 2z m1856 -12 c99 -46 140
-118 143 -251 l2 -88 -65 0 -65 0 -5 87 c-5 79 -8 90 -35 118 -73 76 -255 63
-302 -22 -17 -30 -18 -66 -18 -458 0 -392 1 -428 18 -458 24 -44 85 -71 160
-72 67 0 112 17 147 54 24 27 25 32 28 202 l3 174 -105 0 -106 0 0 55 0 55
176 0 176 0 -4 -227 c-3 -221 -4 -230 -30 -284 -46 -99 -126 -139 -282 -139
-152 0 -239 40 -289 133 -22 42 -22 46 -22 507 0 461 0 465 22 507 28 52 85
100 143 118 69 22 251 15 310 -11z m1006 -2 c23 -11 53 -35 67 -52 55 -65 57
-87 57 -657 l0 -523 -65 0 -65 0 0 513 c0 308 -4 526 -10 548 -30 106 -179
120 -285 27 -79 -70 -75 -38 -75 -593 l0 -495 -65 0 -65 0 0 620 0 620 25 0
c17 0 28 -7 34 -22 5 -13 16 -40 25 -62 l16 -39 40 46 c22 25 64 57 93 72 47
24 60 26 142 23 67 -3 101 -10 131 -26z m1895 12 c37 -11 67 -29 95 -58 55
-54 74 -119 74 -248 l0 -98 -64 0 -63 0 -5 108 c-5 119 -17 150 -72 180 -45
24 -182 24 -219 -1 -44 -28 -67 -75 -67 -132 1 -97 13 -114 239 -332 251 -244
264 -263 265 -407 1 -76 -3 -99 -22 -139 -49 -98 -132 -137 -292 -137 -131 0
-192 19 -251 79 -58 57 -69 94 -69 234 l0 107 65 0 65 0 0 -102 c0 -86 3 -109
20 -136 27 -43 89 -72 160 -72 79 0 124 16 159 56 28 31 31 41 31 99 0 35 -5
76 -11 92 -5 15 -106 125 -223 243 -135 136 -222 232 -237 260 -28 56 -38 179
-19 246 19 66 82 131 150 154 71 25 215 26 291 4z m-4181 -311 c0 -176 5 -327
11 -353 19 -84 68 -114 184 -114 89 0 133 16 162 61 16 24 19 65 23 368 l5
340 65 0 65 0 0 -340 c0 -304 -2 -345 -18 -387 -29 -76 -103 -130 -209 -152
l-28 -6 0 -175 0 -175 -65 0 -65 0 0 175 0 175 -27 6 c-100 21 -168 67 -206
138 -21 40 -22 53 -25 380 -2 186 -1 345 2 352 4 10 24 14 66 14 l60 0 0 -307z
m2882 -220 c3 -512 4 -529 24 -563 25 -44 56 -60 116 -60 79 0 160 44 201 109
22 36 22 39 27 536 l5 500 65 0 65 0 0 -615 0 -615 -27 -3 c-22 -3 -30 2 -37
20 -5 13 -16 40 -24 61 l-16 37 -46 -49 c-67 -72 -127 -94 -234 -89 -139 7
-216 64 -240 179 -12 55 -16 1061 -4 1072 3 4 32 7 64 7 l58 0 3 -527z"/>
</g>
</svg>
